<svg width="24" height="24" viewBox="0 0 24 24" fill="none" xmlns="http://www.w3.org/2000/svg">
<path d="M3.35288 8.95043C4.00437 6.17301 6.17301 4.00437 8.95043 3.35288C10.9563 2.88237 13.0437 2.88237 15.0496 3.35288C17.827 4.00437 19.9956 6.17301 20.6471 8.95044C21.1176 10.9563 21.1176 13.0437 20.6471 15.0496C19.9956 17.827 17.827 19.9956 15.0496 20.6471C13.0437 21.1176 10.9563 21.1176 8.95044 20.6471C6.17301 19.9956 4.00437 17.827 3.35288 15.0496C2.88237 13.0437 2.88237 10.9563 3.35288 8.95043Z" stroke="white" stroke-width="1.5"/>
<path d="M10.1817 11.2954C10.385 10.7872 10.7877 10.3845 11.2959 10.1812L13.3336 9.36612C14.1499 9.03959 14.96 9.84967 14.6334 10.666L13.8184 12.7037C13.6151 13.2119 13.2124 13.6146 12.7042 13.8179L10.6665 14.633C9.85016 14.9595 9.04008 14.1494 9.3666 13.3331L10.1817 11.2954Z" stroke="white" stroke-width="1.5" stroke-linecap="round" stroke-linejoin="round"/>
</svg>
