<svg width="24" height="24" viewBox="0 0 24 24" fill="none" xmlns="http://www.w3.org/2000/svg">
<path d="M2.88539 15.1513L3.61329 14.9705L2.88539 15.1513ZM2.88539 8.84875L2.1575 8.668L2.88539 8.84875ZM21.1146 8.84876L21.8425 8.66801L21.1146 8.84876ZM21.1146 15.1512L21.8425 15.332L21.1146 15.1512ZM15.1156 20.659L14.9533 19.9267L15.1156 20.659ZM8.88443 20.659L9.04668 19.9267L8.88443 20.659ZM8.88443 3.34105L8.72218 2.60881L8.88443 3.34105ZM15.1156 3.34105L14.9533 4.07329L15.1156 3.34105ZM8.43055 20.5584L8.2683 21.2906L8.43055 20.5584ZM15.5694 20.5584L15.7317 21.2906L15.5694 20.5584ZM15.5694 3.44162L15.7317 2.70938L15.5694 3.44162ZM8.43056 3.44162L8.59281 4.17386L8.43056 3.44162ZM4.73825 5.89015C4.40121 5.64936 3.93279 5.72738 3.692 6.06441C3.45121 6.40144 3.52923 6.86986 3.86626 7.11066L4.73825 5.89015ZM10.0825 10.63L9.64648 11.2403L10.0825 10.63ZM13.9175 10.63L14.3535 11.2403L13.9175 10.63ZM20.1337 7.11066C20.4708 6.86986 20.5488 6.40144 20.308 6.06441C20.0672 5.72738 19.5988 5.64936 19.2618 5.89015L20.1337 7.11066ZM8.59281 4.17386L9.04668 4.07329L8.72218 2.60881L8.2683 2.70938L8.59281 4.17386ZM14.9533 4.07329L15.4072 4.17386L15.7317 2.70938L15.2778 2.60881L14.9533 4.07329ZM15.4072 19.8261L14.9533 19.9267L15.2778 21.3912L15.7317 21.2906L15.4072 19.8261ZM9.04668 19.9267L8.59281 19.8261L8.2683 21.2906L8.72218 21.3912L9.04668 19.9267ZM3.61329 14.9705C3.1289 13.0198 3.1289 10.9802 3.61329 9.02949L2.1575 8.668C1.61417 10.8561 1.61417 13.1439 2.1575 15.332L3.61329 14.9705ZM20.3867 9.0295C20.8711 10.9802 20.8711 13.0198 20.3867 14.9705L21.8425 15.332C22.3858 13.1439 22.3858 10.8561 21.8425 8.66801L20.3867 9.0295ZM14.9533 19.9267C13.008 20.3578 10.992 20.3578 9.04668 19.9267L8.72218 21.3912C10.8812 21.8696 13.1188 21.8696 15.2778 21.3912L14.9533 19.9267ZM9.04668 4.07329C10.992 3.64224 13.008 3.64224 14.9533 4.07329L15.2778 2.60881C13.1188 2.1304 10.8812 2.1304 8.72218 2.60881L9.04668 4.07329ZM8.59281 19.8261C6.14627 19.284 4.21736 17.4032 3.61329 14.9705L2.1575 15.332C2.89874 18.3171 5.26576 20.6253 8.2683 21.2906L8.59281 19.8261ZM15.7317 21.2906C18.7342 20.6253 21.1013 18.3171 21.8425 15.332L20.3867 14.9705C19.7826 17.4032 17.8537 19.284 15.4072 19.8261L15.7317 21.2906ZM15.4072 4.17386C17.8537 4.71598 19.7826 6.5968 20.3867 9.0295L21.8425 8.66801C21.1013 5.68288 18.7342 3.3747 15.7317 2.70938L15.4072 4.17386ZM8.2683 2.70938C5.26576 3.3747 2.89874 5.68288 2.1575 8.668L3.61329 9.02949C4.21736 6.59679 6.14627 4.71598 8.59281 4.17386L8.2683 2.70938ZM3.86626 7.11066L9.64648 11.2403L10.5185 10.0198L4.73825 5.89015L3.86626 7.11066ZM14.3535 11.2403L20.1337 7.11066L19.2618 5.89015L13.4815 10.0198L14.3535 11.2403ZM9.64648 11.2403C11.0543 12.2461 12.9456 12.2461 14.3535 11.2403L13.4815 10.0198C12.5953 10.653 11.4047 10.653 10.5185 10.0198L9.64648 11.2403Z" fill="white"/>
</svg>
